{"title":"The Attacks of 26/11 2013 Hindi Movies Best Scam Rip Sample Incl","uid":8213633,"size":732966708,"categoryP":"video","categoryS":"movies","magnet":"?xt=urn:btih:bd2dd4ad41ef30b0d973dcf79d89ae9a2b0bc22f&amp;dn=The+Attacks+of+26%2F11+2013+Hindi+Movies+Best+Scam+Rip+Sample+Incl&amp;tr=udp%3A%2F%2Ftracker.openbittorrent.com%3A80&amp;tr=udp%3A%2F%2Fopen.demonii.com%3A1337&amp;tr=udp%3A%2F%2Ftracker.coppersurfer.tk%3A6969&amp;tr=udp%3A%2F%2Fexodus.desync.com%3A6969","seeders":2,"leechers":0,"uploader":"basicssom","files":2,"time":1362293582,"description":"The Attacks of 26/11 2013 Hindi Movies Best Scam Rip Sample Included ~ rDX\n\nScreen Shots :\n &lt;a href=&quot;\nhttp://myimghosting.serveftp.com/13/TheAttacksof2611.html&quot; rel=&quot;nofollow&quot; target=&quot;_NEW&quot;&gt;\nhttp://myimghosting.serveftp.com/13/TheAttacksof2611.html&lt;/a&gt;\n &lt;a href=&quot;\nhttp://myimghost.cwahi.net/TheAttacksof2611.html&quot; rel=&quot;nofollow&quot; target=&quot;_NEW&quot;&gt;\nhttp://myimghost.cwahi.net/TheAttacksof2611.html&lt;/a&gt;\n\n\nFormat                                   : MPEG-4\nFormat profile                           : Base Media\nCodec ID                                 : isom\nFile size                                : 691 MiB\nDuration                                 : 1h 41mn\nOverall bit rate mode                    : Variable\nOverall bit rate                         : 953 Kbps\nWriting application                      : Lavf52.34.0\n\nVideo\nID                                       : 1\nFormat                                   : MPEG-4 Visual\nFormat profile                           : Simple@L1\nFormat settings, BVOP                    : No\nFormat settings, QPel                    : No\nFormat settings, GMC                     : No warppoints\nFormat settings, Matrix                  : Default (H.263)\nCodec ID                                 : 20\nDuration                                 : 1h 41mn\nBit rate                                 : 300 Kbps\nWidth                                    : 352 pixels\nHeight                                   : 288 pixels\nDisplay aspect ratio                     : 1.222\nOriginal display aspect ratio            : 4:3\nFrame rate mode                          : Constant\nFrame rate                               : 25.000 fps\nStandard                                 : PAL\nColor space                              : YUV\nChroma subsampling                       : 4:2:0\nBit depth                                : 8 bits\nScan type                                : Progressive\nCompression mode                         : Lossy\nBits/(Pixel*Frame)                       : 0.118\nStream size                              : 217 MiB (31%)\nWriting library                          : Lavc52.30.1\n\nAudio\nID                                       : 2\nFormat                                   : AAC\nFormat/Info                              : Advanced Audio Codec\nFormat profile                           : LC\nCodec ID                                 : 40\nDuration                                 : 1h 41mn\nBit rate mode                            : Variable\nBit rate                                 : 152 Kbps\nChannel(s)                               : 2 channels\nChannel positions                        : Front: L R\nSampling rate                            : 44.1 KHz\nCompression mode                         : Lossy\nStream size                              : 110 MiB (16%)","torrent":{"xt":"urn:btih:bd2dd4ad41ef30b0d973dcf79d89ae9a2b0bc22f","amp;dn":"The+Attacks+of+26%2F11+2013+Hindi+Movies+Best+Scam+Rip+Sample+Incl","amp;tr":["udp%3A%2F%2Ftracker.openbittorrent.com%3A80","udp%3A%2F%2Fopen.demonii.com%3A1337","udp%3A%2F%2Ftracker.coppersurfer.tk%3A6969","udp%3A%2F%2Fexodus.desync.com%3A6969"],"infoHash":"bd2dd4ad41ef30b0d973dcf79d89ae9a2b0bc22f","infoHashBuffer":{"type":"Buffer","data":[189,45,212,173,65,239,48,176,217,115,220,247,157,137,174,154,43,11,194,47]},"announce":[],"urlList":[]}}